<mxfile host="app.diagrams.net" modified="2021-09-11T09:35:29.060Z" agent="5.0 (Macintosh; Intel Mac OS X 10_15_3) AppleWebKit/537.36 (KHTML, like Gecko) Chrome/93.0.4577.63 Safari/537.36" etag="YgCS79W_KfP99_q3sX2U" version="15.1.4" type="github">
  <diagram id="EDpGnKBvicJj4246qPKO" name="Page-1">
    <mxGraphModel dx="926" dy="553" grid="1" gridSize="10" guides="1" tooltips="1" connect="1" arrows="1" fold="1" page="1" pageScale="1" pageWidth="827" pageHeight="1169" math="0" shadow="0">
      <root>
        <mxCell id="0" />
        <mxCell id="1" parent="0" />
        <mxCell id="ktdczriPKh5tT-FEh74--2" value="分布式锁+Quartz实现定时任务" style="rounded=0;whiteSpace=wrap;html=1;strokeColor=#36393d;fillColor=#ffcc99;" vertex="1" parent="1">
          <mxGeometry x="40" y="40" width="240" height="60" as="geometry" />
        </mxCell>
        <mxCell id="ktdczriPKh5tT-FEh74--5" value="" style="shape=note;whiteSpace=wrap;html=1;backgroundOutline=1;darkOpacity=0.05;align=left;fillColor=#dae8fc;strokeColor=#6c8ebf;" vertex="1" parent="1">
          <mxGeometry x="370" y="15" width="390" height="430" as="geometry" />
        </mxCell>
        <mxCell id="ktdczriPKh5tT-FEh74--6" value="&lt;span style=&quot;text-align: left&quot;&gt;1，需要自己实现分布式锁，几乎无高可用，没有一个统一的管理后台。&lt;/span&gt;" style="rounded=0;whiteSpace=wrap;html=1;strokeColor=#36393d;fillColor=#ffff88;" vertex="1" parent="1">
          <mxGeometry x="370" y="45" width="380" height="60" as="geometry" />
        </mxCell>
        <mxCell id="ktdczriPKh5tT-FEh74--7" value="" style="html=1;shadow=0;dashed=0;align=center;verticalAlign=middle;shape=mxgraph.arrows2.arrow;dy=0.6;dx=40;direction=south;notch=0;fillColor=#d5e8d4;strokeColor=#82b366;" vertex="1" parent="1">
          <mxGeometry x="125" y="100" width="70" height="100" as="geometry" />
        </mxCell>
        <mxCell id="ktdczriPKh5tT-FEh74--8" value="智云分布式调度1.0" style="rounded=0;whiteSpace=wrap;html=1;strokeColor=#36393d;fillColor=#ffcc99;" vertex="1" parent="1">
          <mxGeometry x="40" y="200" width="240" height="60" as="geometry" />
        </mxCell>
        <mxCell id="ktdczriPKh5tT-FEh74--9" value="" style="html=1;shadow=0;dashed=0;align=center;verticalAlign=middle;shape=mxgraph.arrows2.arrow;dy=0.6;dx=40;direction=south;notch=0;fillColor=#d5e8d4;strokeColor=#82b366;" vertex="1" parent="1">
          <mxGeometry x="125" y="260" width="70" height="100" as="geometry" />
        </mxCell>
        <mxCell id="ktdczriPKh5tT-FEh74--10" value="智云分布式调度2.0" style="rounded=0;whiteSpace=wrap;html=1;strokeColor=#36393d;fillColor=#ffcc99;" vertex="1" parent="1">
          <mxGeometry x="40" y="360" width="240" height="60" as="geometry" />
        </mxCell>
        <mxCell id="ktdczriPKh5tT-FEh74--12" value="&lt;span style=&quot;text-align: left&quot;&gt;2，基于阿里云SchedulerX封装实现，任务申请繁琐，修改变更，触发需要运维协助完成，&lt;/span&gt;" style="rounded=0;whiteSpace=wrap;html=1;strokeColor=#36393d;fillColor=#ffff88;" vertex="1" parent="1">
          <mxGeometry x="370" y="205" width="380" height="60" as="geometry" />
        </mxCell>
        <mxCell id="ktdczriPKh5tT-FEh74--13" value="&lt;span style=&quot;text-align: left&quot;&gt;1，需要自己实现分布式锁，几乎无高可用，没有一个统一的管理后台。&lt;/span&gt;" style="rounded=0;whiteSpace=wrap;html=1;strokeColor=#36393d;fillColor=#ffff88;" vertex="1" parent="1">
          <mxGeometry x="370" y="365" width="380" height="60" as="geometry" />
        </mxCell>
      </root>
    </mxGraphModel>
  </diagram>
</mxfile>
